<svg xmlns="http://www.w3.org/2000/svg" viewBox="0 0 216.5 209.3">
  <path fill-rule="evenodd" clip-rule="evenodd" fill="#d0a953" d="M211.7 147.6c.6-13.7 7.1-26.3 3.8-43-3.3-16.2-4.5-24.8-4.6-41.3-.1-9.7-2.3-27.2-.6-36.8 1.6-8.7 4.2-17.3-4.4-23.6-8-5.9-44.6-1.8-55.5 2.5-11.7 4.7-31.2-4.5-43.8-3.9C96.7 2 85.4-.9 75.7 1c-3.3.7-12.5 3.5-20.2 3.6C39 2.9 22.9 1.5 15.8 1.5L9.5 3.4C6.1 6.1 7 14 6.3 17.9c-1.1 7 1.2 11.9 1.3 19.1 0 20.6-3.4 39.5-5.5 59.9-1.8 17.4-2.2 36-2.1 53.4.1 9 1.7 17.8 2.5 26.7.5 4.8-.4 10.7.6 15.4 5.4 25.6 65.4 13.7 70.6 13.7 5.2 0 23.3 5.4 39.2 2.1 4.8-1 25.1-3.2 30.1-2.7 5.3.5 18.5-3.7 32-3.1 13.5.5 27 3.5 32.4.8 9.6-4.7 5.3-13.3 7.4-22.5 2.7-10.9-3.6-22.2-3.1-33.1zm-8.1 44.2c-3.6 6.1-14.4 2.8-30.1 2.1-3.5-.2-16.5 4.3-27 4.7-10.8.4-23-3.2-33.6-1.1-8.6 1.6-23.3 4.9-32.2 4.6-7.3-.2-52.9-2.2-60-3.5-12.5-2.2-5-4.5-9.2-17.8-4.5-14.3-.4-24 .7-38.1 1.1-13.6-4.8-23.5 2.7-38.1 4.6-9 2.1-19.6.8-29.5-1.6-11.4-2-22.1-2-33.7 0-3.5-2.5-22.4 2.5-25.3 13.2-7.5 15.9-2.6 28.6-2.5 13.5.1 27.4.9 31.6 1.2 11.9.9 22.5-3.3 34.4-4.2 10.6-.9 22.6.8 33.1 2.9 15.5 3.1 53.4-6.1 56.3 4.1 1.5 5.4-1.7 10.1-.8 19.4.7 7.6 5.1 10.5 5.1 25.6 0 6.2-4.5 22-4.7 33-.4 16.5 3.4 23.2 3.4 32.5 0 14.7-3.4 23.2-1.7 35.4.9 8.5 6.9 20 2.1 28.3z"/>
</svg>