<svg xmlns="http://www.w3.org/2000/svg" viewBox="0 0 285.1 252.5">
  <circle fill-rule="evenodd" clip-rule="evenodd" fill="#001848" cx="71" cy="28.5" r="27"/>
  <path fill="#001848" d="M207 66.5H10c-5.5 0-10 4.5-10 10v20c0 5.5 4.5 10 10 10h197c5.5 0 10-4.5 10-10v-20c0-5.5-4.5-10-10-10z"/>
  <path fill-rule="evenodd" clip-rule="evenodd" fill="#001848" d="M251 212.5H54c-5.5 0-10 4.5-10 10v20c0 5.5 4.5 10 10 10h197c5.5 0 10-4.5 10-10v-20c0-5.5-4.5-10-10-10z"/>
  <path fill-rule="evenodd" clip-rule="evenodd" fill="#001848" d="M165.4 216.4L86.6 74.3c-2.2-4-7.9-5-12.7-2.4l-17.5 9.7c-4.8 2.7-7 8.1-4.8 12.1l78.7 142.1c2.2 4 7.9 5 12.7 2.4l17.5-9.7c4.9-2.8 7.1-8.2 4.9-12.1z"/>
  <path fill-rule="evenodd" clip-rule="evenodd" fill="#001848" d="M276.5 13.1l-25-11.6C244.6-1.7 236.8.3 234.2 6l-93.9 203.5c-2.6 5.7.8 12.9 7.8 16.1l25 11.6c6.9 3.2 14.7 1.2 17.3-4.5l93.9-203.5c2.5-5.7-.9-12.9-7.8-16.1z"/>
</svg>