<svg xmlns="http://www.w3.org/2000/svg" viewBox="0 0 296 296">
  <path fill-rule="evenodd" clip-rule="evenodd" fill="#D0A953" d="M252.7 252.7c-28.9 28.8-63.8 43.3-104.9 43.3-40.8 0-75.6-14.4-104.5-43.3C14.4 223.9 0 189 0 148S14.4 72.1 43.3 43.3C72.2 14.4 107 0 147.8 0c41 0 76 14.4 104.9 43.3C281.6 72.1 296 107 296 148s-14.4 75.9-43.3 104.7zM159.1 66.6c-3.9-3.6-8.6-5.4-14-5.4-5.1 0-9.6 1.9-13.5 5.8-3.9 3.9-5.8 8.3-5.8 13.4 0 5.7 1.9 10.3 5.8 13.9 3.9 3.6 8.4 5.4 13.5 5.4 5.7 0 10.4-1.9 14.2-5.6 3.7-3.7 5.6-8.3 5.6-13.6 0-5.7-1.9-10.4-5.8-13.9zm24 94.5c-16.6-11.9-39.2-11.9-59.3-22.5C102.3 125.4 93 109.3 93 85.2c0-19.3 4.7-35.6 19.6-49 11.6-10.4 23.9-16.7 37-19-37.9 0-69.6 13.7-95.1 41.1-24 25.8-36 55.8-36 89.7 0 34 12.5 67 40.1 93.9 25.5 24.8 52.3 34.6 77.9 34.6 23 0 41.1-4.3 54.2-12.9 15.7-10.4 23.5-26.9 23.5-49.4-.1-19.4-9.9-41.9-31.1-53.1zm-36.9 75.6c-5.6 0-10.3-1.9-14.1-5.8-3.9-3.9-5.8-8.5-5.8-14.1 0-5.5 1.9-10.2 5.8-14.1 3.9-3.9 8.5-5.8 14.1-5.8 5.2 0 9.9 1.9 13.9 5.5 4 3.7 6 8.5 6 14.3 0 5.2-2 9.9-6 13.9-4 4.1-8.6 6.1-13.9 6.1z"/>
</svg>